<?xml version="1.0" encoding="UTF-8"?>
<svg version="1.1" xmlns="http://www.w3.org/2000/svg" width="474" height="326">
<path d="M0 0 C0.90419678 0.52335937 1.80839355 1.04671875 2.73999023 1.5859375 C11.41961914 6.62800804 20.02553765 11.79267242 28.61474609 16.98681641 C32.04583722 19.05508161 35.48874952 21.1033022 38.9309082 23.15307617 C42.24436134 25.13207959 45.54684427 27.12890688 48.84765625 29.12890625 C50.98311619 30.41457767 53.1307798 31.6771664 55.28125 32.9375 C64.55393038 38.47979172 70.19738244 43.94006296 73.125 54.5 C73.41643552 57.61247224 73.41881884 60.71045774 73.41552734 63.83496094 C73.42224457 64.75611694 73.42896179 65.67727295 73.43588257 66.62634277 C73.45483232 69.66240887 73.45878546 72.69825349 73.4609375 75.734375 C73.46736826 77.85418792 73.47409683 79.97399996 73.48110962 82.09381104 C73.49307537 86.53554338 73.49679123 90.97719799 73.49560547 95.41894531 C73.49540249 101.0925112 73.52268601 106.765575 73.55714989 112.43902206 C73.57946046 116.81783304 73.58344171 121.19652407 73.58238602 125.57538605 C73.58473642 127.66603574 73.59352815 129.75668902 73.60905075 131.84728241 C73.62879172 134.78102578 73.6228405 137.71369788 73.61083984 140.64746094 C73.62207886 141.49975281 73.63331787 142.35204468 73.64489746 143.23016357 C73.56446707 151.0233185 71.43551856 158.23757946 66.171875 164.12890625 C61.13990486 168.69796716 55.20689453 172.0053272 49.375 175.4375 C48.13358799 176.17839898 46.89271198 176.92019671 45.65234375 177.6628418 C42.44801191 179.57780787 39.23640379 181.48017229 36.0222168 183.37854004 C33.00647966 185.16116629 29.99574136 186.95219152 26.984375 188.7421875 C22.47910964 191.41893037 17.96752007 194.08477643 13.453125 196.74609375 C9.35963847 199.16423693 5.28734884 201.61222561 1.234375 204.09765625 C0.32429688 204.65348389 -0.58578125 205.20931152 -1.5234375 205.78198242 C-3.19437566 206.80514979 -4.86141172 207.8347326 -6.5234375 208.87231445 C-14.04544956 213.46791655 -21.06401404 215.44509864 -29.875 214.5 C-37.12155923 212.28600564 -43.71434476 208.57418313 -50.25 204.8125 C-51.71626831 203.97634155 -51.71626831 203.97634155 -53.2121582 203.12329102 C-64.21960085 196.80137311 -75.0445794 190.17834974 -85.86952209 183.5508728 C-89.5396462 181.30685162 -93.22448805 179.08940329 -96.921875 176.890625 C-97.8394458 176.3447876 -98.7570166 175.7989502 -99.70239258 175.23657227 C-101.38275841 174.2392922 -103.06476329 173.24476603 -104.7487793 172.25366211 C-110.68533368 168.72526569 -115.58465565 165.61175235 -119.125 159.5 C-119.62515625 158.654375 -120.1253125 157.80875 -120.640625 156.9375 C-122.41916044 153.42545533 -122.99796123 150.35782318 -123.02217102 146.44174194 C-123.02932632 145.6429361 -123.03648163 144.84413025 -123.04385376 144.02111816 C-123.04654266 143.15353882 -123.04923157 142.28595947 -123.05200195 141.39208984 C-123.05857315 140.47122589 -123.06514435 139.55036194 -123.07191467 138.60159302 C-123.09162024 135.55470697 -123.10330558 132.50787021 -123.11328125 129.4609375 C-123.11939454 127.89647322 -123.11939454 127.89647322 -123.12563133 126.30040359 C-123.14648261 120.77758228 -123.16078717 115.25478574 -123.17016602 109.73193359 C-123.18121495 104.04264605 -123.21560033 98.35375127 -123.25533772 92.66460228 C-123.28155329 88.27722473 -123.28986236 83.88993997 -123.29344749 79.502491 C-123.2983024 77.40624979 -123.30988492 75.31001242 -123.32848549 73.21384811 C-123.35297686 70.27034659 -123.35189335 67.32785072 -123.3449707 64.38427734 C-123.35778076 63.52884338 -123.37059082 62.67340942 -123.38378906 61.79205322 C-123.32165454 54.49280115 -121.34590611 47.9616202 -117.0793457 41.984375 C-112.13085842 37.32265193 -106.987246 33.81479042 -101.0625 30.5 C-99.11028478 29.37698377 -97.15848082 28.25325242 -95.20703125 27.12890625 C-94.1804541 26.54254395 -93.15387695 25.95618164 -92.09619141 25.35205078 C-87.02700463 22.4374797 -82.0015724 19.44984325 -76.97515869 16.46228027 C-75.25374924 15.43972713 -73.53111294 14.41927188 -71.80810547 13.39941406 C-66.52598952 10.27067689 -61.25122844 7.13090673 -55.99609375 3.95703125 C-55.09391113 3.41248291 -54.19172852 2.86793457 -53.26220703 2.30688477 C-51.61174453 1.3088761 -49.96283453 0.30829275 -48.31591797 -0.69555664 C-29.93037017 -11.81730605 -18.59065851 -10.89311713 0 0 Z " fill="#FDFDFD" transform="translate(261.875,60.5)"/>
<path d="M0 0 C0.90419678 0.52335937 1.80839355 1.04671875 2.73999023 1.5859375 C11.41961914 6.62800804 20.02553765 11.79267242 28.61474609 16.98681641 C32.04583722 19.05508161 35.48874952 21.1033022 38.9309082 23.15307617 C42.24436134 25.13207959 45.54684427 27.12890688 48.84765625 29.12890625 C50.98311619 30.41457767 53.1307798 31.6771664 55.28125 32.9375 C64.55393038 38.47979172 70.19738244 43.94006296 73.125 54.5 C73.41643552 57.61247224 73.41881884 60.71045774 73.41552734 63.83496094 C73.42224457 64.75611694 73.42896179 65.67727295 73.43588257 66.62634277 C73.45483232 69.66240887 73.45878546 72.69825349 73.4609375 75.734375 C73.46736826 77.85418792 73.47409683 79.97399996 73.48110962 82.09381104 C73.49307537 86.53554338 73.49679123 90.97719799 73.49560547 95.41894531 C73.49540249 101.0925112 73.52268601 106.765575 73.55714989 112.43902206 C73.57946046 116.81783304 73.58344171 121.19652407 73.58238602 125.57538605 C73.58473642 127.66603574 73.59352815 129.75668902 73.60905075 131.84728241 C73.62879172 134.78102578 73.6228405 137.71369788 73.61083984 140.64746094 C73.62207886 141.49975281 73.63331787 142.35204468 73.64489746 143.23016357 C73.56446707 151.0233185 71.43551856 158.23757946 66.171875 164.12890625 C61.13990486 168.69796716 55.20689453 172.0053272 49.375 175.4375 C48.13358799 176.17839898 46.89271198 176.92019671 45.65234375 177.6628418 C42.44801191 179.57780787 39.23640379 181.48017229 36.0222168 183.37854004 C33.00647966 185.16116629 29.99574136 186.95219152 26.984375 188.7421875 C22.47910964 191.41893037 17.96752007 194.08477643 13.453125 196.74609375 C9.35963847 199.16423693 5.28734884 201.61222561 1.234375 204.09765625 C0.32429688 204.65348389 -0.58578125 205.20931152 -1.5234375 205.78198242 C-3.19437566 206.80514979 -4.86141172 207.8347326 -6.5234375 208.87231445 C-14.04544956 213.46791655 -21.06401404 215.44509864 -29.875 214.5 C-37.12155923 212.28600564 -43.71434476 208.57418313 -50.25 204.8125 C-51.71626831 203.97634155 -51.71626831 203.97634155 -53.2121582 203.12329102 C-64.21960085 196.80137311 -75.0445794 190.17834974 -85.86952209 183.5508728 C-89.5396462 181.30685162 -93.22448805 179.08940329 -96.921875 176.890625 C-97.8394458 176.3447876 -98.7570166 175.7989502 -99.70239258 175.23657227 C-101.38275841 174.2392922 -103.06476329 173.24476603 -104.7487793 172.25366211 C-110.68533368 168.72526569 -115.58465565 165.61175235 -119.125 159.5 C-119.62515625 158.654375 -120.1253125 157.80875 -120.640625 156.9375 C-122.41916044 153.42545533 -122.99796123 150.35782318 -123.02217102 146.44174194 C-123.02932632 145.6429361 -123.03648163 144.84413025 -123.04385376 144.02111816 C-123.04654266 143.15353882 -123.04923157 142.28595947 -123.05200195 141.39208984 C-123.05857315 140.47122589 -123.06514435 139.55036194 -123.07191467 138.60159302 C-123.09162024 135.55470697 -123.10330558 132.50787021 -123.11328125 129.4609375 C-123.11939454 127.89647322 -123.11939454 127.89647322 -123.12563133 126.30040359 C-123.14648261 120.77758228 -123.16078717 115.25478574 -123.17016602 109.73193359 C-123.18121495 104.04264605 -123.21560033 98.35375127 -123.25533772 92.66460228 C-123.28155329 88.27722473 -123.28986236 83.88993997 -123.29344749 79.502491 C-123.2983024 77.40624979 -123.30988492 75.31001242 -123.32848549 73.21384811 C-123.35297686 70.27034659 -123.35189335 67.32785072 -123.3449707 64.38427734 C-123.35778076 63.52884338 -123.37059082 62.67340942 -123.38378906 61.79205322 C-123.32165454 54.49280115 -121.34590611 47.9616202 -117.0793457 41.984375 C-112.13085842 37.32265193 -106.987246 33.81479042 -101.0625 30.5 C-99.11028478 29.37698377 -97.15848082 28.25325242 -95.20703125 27.12890625 C-94.1804541 26.54254395 -93.15387695 25.95618164 -92.09619141 25.35205078 C-87.02700463 22.4374797 -82.0015724 19.44984325 -76.97515869 16.46228027 C-75.25374924 15.43972713 -73.53111294 14.41927188 -71.80810547 13.39941406 C-66.52598952 10.27067689 -61.25122844 7.13090673 -55.99609375 3.95703125 C-55.09391113 3.41248291 -54.19172852 2.86793457 -53.26220703 2.30688477 C-51.61174453 1.3088761 -49.96283453 0.30829275 -48.31591797 -0.69555664 C-29.93037017 -11.81730605 -18.59065851 -10.89311713 0 0 Z M-45.40478516 4.95019531 C-49.24850316 7.36173137 -53.15426234 9.66795592 -57.05175781 11.99121094 C-60.30950208 13.93571059 -63.55984468 15.89207768 -66.80859375 17.8515625 C-71.81430529 20.86697635 -76.83517561 23.85451122 -81.875 26.8125 C-82.86729614 27.39668701 -82.86729614 27.39668701 -83.87963867 27.99267578 C-87.41268644 30.06919639 -90.95783829 32.12238684 -94.515625 34.15625 C-95.28648437 34.60057373 -96.05734375 35.04489746 -96.8515625 35.50268555 C-98.31652055 36.34670401 -99.78503211 37.18459915 -101.2578125 38.01489258 C-107.7808956 41.78644658 -114.15784133 46.95228452 -116.47517681 54.43902302 C-117.16764704 58.00851385 -117.040287 61.6328527 -117.05200195 65.2565918 C-117.05857315 66.14004776 -117.06514435 67.02350372 -117.07191467 67.93373108 C-117.09161376 70.85556122 -117.1033035 73.77734001 -117.11328125 76.69921875 C-117.11735678 77.69931284 -117.1214323 78.69940693 -117.12563133 79.7298069 C-117.14647885 85.02454038 -117.16078559 90.31924805 -117.17016602 95.61401367 C-117.18122024 101.07023849 -117.21561276 106.52605436 -117.25533772 111.98213482 C-117.28154097 116.18846878 -117.28986122 120.39470588 -117.29344749 124.60111427 C-117.2983048 126.61165945 -117.30989424 128.62220055 -117.32848549 130.63266563 C-117.35295305 133.45424753 -117.35189789 136.27477903 -117.3449707 139.09643555 C-117.35778076 139.91806183 -117.37059082 140.73968811 -117.38378906 141.58621216 C-117.31296145 149.54936194 -114.49199014 156.75250238 -108.875 162.5 C-106.0914768 164.4928189 -106.0914768 164.4928189 -102.9140625 166.25 C-102.33596329 166.58484909 -101.75786407 166.91969818 -101.1622467 167.26469421 C-99.27998266 168.35236918 -97.39012474 169.42605399 -95.5 170.5 C-94.18142953 171.25910007 -92.86348287 172.01928466 -91.54614258 172.78051758 C-88.89741272 174.31023375 -86.24627645 175.83563863 -83.59326172 177.35791016 C-78.55501202 180.25389422 -73.55806002 183.21865966 -68.5625 186.1875 C-60.63905408 190.87823338 -52.69986132 195.54167861 -44.75 200.1875 C-43.72350342 200.78844482 -42.69700684 201.38938965 -41.6394043 202.00854492 C-40.20528198 202.84542847 -40.20528198 202.84542847 -38.7421875 203.69921875 C-37.89769043 204.19252686 -37.05319336 204.68583496 -36.18310547 205.1940918 C-31.21013336 208.03138706 -31.21013336 208.03138706 -25.625 208.625 C-24.3875 208.58375 -23.15 208.5425 -21.875 208.5 C-21.875 207.84 -21.875 207.18 -21.875 206.5 C-22.84800552 205.72520294 -22.84800552 205.72520294 -23.84066772 204.93475342 C-26.85957657 201.32162752 -26.45092528 198.11953649 -26.42431641 193.54394531 C-26.43453827 192.63937592 -26.44476013 191.73480652 -26.45529175 190.80282593 C-26.48310157 187.81098996 -26.48116846 184.82007491 -26.4765625 181.828125 C-26.48433741 179.74550026 -26.49300695 177.66287869 -26.50253296 175.58026123 C-26.51746253 171.21225719 -26.51687285 166.84457639 -26.50634766 162.4765625 C-26.49477764 156.88987049 -26.52856757 151.30450882 -26.575037 145.71803665 C-26.60456753 141.41473708 -26.60624733 137.11175546 -26.60001755 132.8083725 C-26.60104187 130.74955365 -26.61147811 128.69071652 -26.63164139 126.63199615 C-26.65643903 123.74500956 -26.64275205 120.86058133 -26.61962891 117.97363281 C-26.64256012 116.70774826 -26.64256012 116.70774826 -26.66595459 115.41629028 C-26.5516603 108.92990498 -24.27057334 105.19215496 -19.875 100.5 C-17.73535156 98.66479492 -17.73535156 98.66479492 -15.765625 97.48046875 C-15.02046631 97.02148193 -14.27530762 96.56249512 -13.50756836 96.08959961 C-12.7213208 95.62690674 -11.93507324 95.16421387 -11.125 94.6875 C-10.29299072 94.18033447 -9.46098145 93.67316895 -8.60375977 93.15063477 C-6.87870398 92.10093384 -5.14958266 91.05788562 -3.41650391 90.02148438 C-1.02133747 88.58760568 1.36077195 87.13479981 3.73828125 85.671875 C7.44171797 83.39389524 11.15365928 81.13034052 14.86914062 78.87207031 C18.72873419 76.5245686 22.58302681 74.16839641 26.4375 71.8125 C27.18572021 71.35528564 27.93394043 70.89807129 28.70483398 70.42700195 C33.22324845 67.66511177 37.738649 64.89841417 42.25 62.125 C43.78720703 61.18527344 43.78720703 61.18527344 45.35546875 60.2265625 C47.08587396 59.14780495 48.80026272 58.04238394 50.48828125 56.8984375 C54.50165224 54.19262429 57.10368447 52.70115435 62.125 53.5 C64.5 54.5 64.5 54.5 66.125 55.5 C65.2388225 49.52345404 62.60937706 46.43440629 58.125 42.5 C53.87441961 39.56172985 49.35171559 37.06201808 44.86230469 34.51220703 C42.62879938 33.21089829 40.50077247 31.78212248 38.375 30.3125 C35.34628093 28.24434802 32.25778908 26.44270756 29.0234375 24.71484375 C23.4338508 21.69102229 17.95906532 18.50220912 12.5 15.25 C10.58466844 14.11452763 8.66930343 12.97911167 6.75390625 11.84375 C4.00578048 10.21188876 1.25815213 8.57919977 -1.48876953 6.9453125 C-3.8452672 5.54447724 -6.20372219 4.14699119 -8.5625 2.75 C-9.26262207 2.33202148 -9.96274414 1.91404297 -10.68408203 1.48339844 C-23.52594954 -6.11446566 -33.66696878 -2.48075525 -45.40478516 4.95019531 Z " fill="#3F494B" transform="translate(261.875,60.5)"/>
<path d="M0 0 C1.56814453 -0.04253906 1.56814453 -0.04253906 3.16796875 -0.0859375 C12.01153264 1.03254111 19.34753212 5.64417162 26.6875 10.4375 C27.92886719 11.23124023 27.92886719 11.23124023 29.1953125 12.04101562 C32.8302532 14.37734444 36.37634524 16.75226485 39.8125 19.375 C39.4825 20.365 39.1525 21.355 38.8125 22.375 C34.663075 21.78640232 31.76275579 20.39539145 28.1796875 18.25 C26.59994141 17.31414062 26.59994141 17.31414062 24.98828125 16.359375 C23.89902344 15.70453125 22.80976563 15.0496875 21.6875 14.375 C19.51966621 13.08092296 17.35045802 11.7891447 15.1796875 10.5 C14.22175293 9.92507812 13.26381836 9.35015625 12.27685547 8.7578125 C6.3797269 5.44878375 0.39088051 5.36873368 -6.1875 6.375 C-11.01089397 8.39496278 -15.30639928 11.03276153 -19.71728516 13.82519531 C-23.56100316 16.23673137 -27.46676234 18.54295592 -31.36425781 20.86621094 C-34.62200208 22.81071059 -37.87234468 24.76707768 -41.12109375 26.7265625 C-48.0930898 30.92645562 -55.10516636 35.05517808 -62.12988281 39.16601562 C-64.39034059 40.49418208 -66.64471197 41.83231861 -68.8984375 43.171875 C-69.67832031 43.63424561 -70.45820313 44.09661621 -71.26171875 44.57299805 C-72.75782131 45.46027704 -74.25268436 46.34965057 -75.74609375 47.24145508 C-78.53530537 48.89234322 -81.10271592 50.34673864 -84.1875 51.375 C-85.25466704 53.17432579 -85.25466704 53.17432579 -86.1875 55.375 C-86.703125 56.2 -87.21875 57.025 -87.75 57.875 C-90.56279371 62.76681515 -90.34662974 67.60325493 -90.36450195 73.1315918 C-90.37107315 74.01504776 -90.37764435 74.89850372 -90.38441467 75.80873108 C-90.40411376 78.73056122 -90.4158035 81.65234001 -90.42578125 84.57421875 C-90.42985678 85.57431284 -90.4339323 86.57440693 -90.43813133 87.6048069 C-90.45897885 92.89954038 -90.47328559 98.19424805 -90.48266602 103.48901367 C-90.49372024 108.94523849 -90.52811276 114.40105436 -90.56783772 119.85713482 C-90.59404097 124.06346878 -90.60236122 128.26970588 -90.60594749 132.47611427 C-90.6108048 134.48665945 -90.62239424 136.49720055 -90.64098549 138.50766563 C-90.66545305 141.32924753 -90.66439789 144.14977903 -90.6574707 146.97143555 C-90.67028076 147.79306183 -90.68309082 148.61468811 -90.69628906 149.46121216 C-90.63948037 155.848215 -89.22194803 162.34732076 -84.55261707 167.00623608 C-83.1875 168.375 -83.1875 168.375 -83.1875 170.375 C-82.47182861 170.64231934 -81.75615723 170.90963867 -81.01879883 171.18505859 C-78.13747017 172.39602659 -75.56975264 173.81365632 -72.88671875 175.4140625 C-71.91025391 175.99414062 -70.93378906 176.57421875 -69.92773438 177.171875 C-68.92033203 177.77515625 -67.91292969 178.3784375 -66.875 179 C-65.84826172 179.61101562 -64.82152344 180.22203125 -63.76367188 180.8515625 C-61.23636125 182.35619394 -58.71106601 183.8640994 -56.1875 185.375 C-56.5175 186.695 -56.8475 188.015 -57.1875 189.375 C-62.33112921 188.83730306 -66.16618881 186.30446251 -70.5 183.6875 C-71.25893555 183.23342773 -72.01787109 182.77935547 -72.79980469 182.31152344 C-83.49885 175.84415568 -91.98031059 169.65672001 -96.1875 157.375 C-96.71050152 154.20739822 -96.75600652 151.12071462 -96.73681641 147.91479492 C-96.7521492 146.56648338 -96.7521492 146.56648338 -96.76779175 145.19093323 C-96.79539054 142.24550071 -96.79368503 139.3010145 -96.7890625 136.35546875 C-96.79684782 134.28957274 -96.80551949 132.22367991 -96.81503296 130.15779114 C-96.82991635 125.83645229 -96.82940557 121.51544034 -96.81884766 117.1940918 C-96.80727131 111.6830384 -96.8411055 106.17333222 -96.887537 100.66250134 C-96.91714462 96.39765224 -96.91873714 92.13312254 -96.91251755 87.86818886 C-96.91353759 85.83779549 -96.92389225 83.80738272 -96.94414139 81.77709007 C-97.05287706 69.34957957 -96.97075696 59.13083077 -88.36904907 49.29582214 C-83.76702691 44.72315718 -77.9210136 41.77624282 -72.28515625 38.66796875 C-67.57808449 36.06195738 -62.97986128 33.2814805 -58.375 30.5 C-51.49050612 26.35126853 -44.58631242 22.2405091 -37.64819336 18.18212891 C-33.70103385 15.86848546 -29.77298708 13.52626848 -25.859375 11.15625 C-24.95767578 10.61097656 -24.05597656 10.06570312 -23.12695312 9.50390625 C-21.37369718 8.44202139 -19.62229821 7.37706258 -17.87304688 6.30859375 C-11.83926838 2.65618546 -7.20844474 0.08780079 0 0 Z " fill="#474D4E" transform="translate(236.1875,52.625)"/>
<path d="M0 0 C0.90419678 0.52335937 1.80839355 1.04671875 2.73999023 1.5859375 C11.41961914 6.62800804 20.02553765 11.79267242 28.61474609 16.98681641 C32.04583722 19.05508161 35.48874952 21.1033022 38.9309082 23.15307617 C42.24436134 25.13207959 45.54684427 27.12890688 48.84765625 29.12890625 C50.98311619 30.41457767 53.1307798 31.6771664 55.28125 32.9375 C64.55393038 38.47979172 70.19738244 43.94006296 73.125 54.5 C73.41643552 57.61247224 73.41881884 60.71045774 73.41552734 63.83496094 C73.42224457 64.75611694 73.42896179 65.67727295 73.43588257 66.62634277 C73.45483232 69.66240887 73.45878546 72.69825349 73.4609375 75.734375 C73.46736826 77.85418792 73.47409683 79.97399996 73.48110962 82.09381104 C73.49307537 86.53554338 73.49679123 90.97719799 73.49560547 95.41894531 C73.49540249 101.0925112 73.52268601 106.765575 73.55714989 112.43902206 C73.57946046 116.81783304 73.58344171 121.19652407 73.58238602 125.57538605 C73.58473642 127.66603574 73.59352815 129.75668902 73.60905075 131.84728241 C73.62879172 134.78102578 73.6228405 137.71369788 73.61083984 140.64746094 C73.62207886 141.49975281 73.63331787 142.35204468 73.64489746 143.23016357 C73.58028724 149.49045182 72.22687344 155.01140455 69.125 160.5 C68.135 161.16 67.145 161.82 66.125 162.5 C67.05138213 160.11787452 67.95735994 157.80569658 69.1875 155.5625 C71.57515268 150.3096641 71.27348117 144.44671563 71.27026367 138.79174805 C71.27362228 137.93726074 71.2769809 137.08277344 71.28044128 136.20239258 C71.2899088 133.38881968 71.29189232 130.57530657 71.29296875 127.76171875 C71.29618438 125.7964526 71.29954868 123.83118668 71.30305481 121.86592102 C71.30903567 117.74955694 71.31089579 113.63321382 71.31030273 109.5168457 C71.3102012 104.25810355 71.3238489 98.99949668 71.34107494 93.74078655 C71.35222728 89.68200572 71.35422094 85.62325725 71.35369301 81.56446266 C71.35486842 79.62650906 71.35926542 77.6885545 71.36702538 75.75061607 C71.37689016 73.03246122 71.37392172 70.31459567 71.36791992 67.59643555 C71.37353943 66.80600357 71.37915894 66.01557159 71.38494873 65.20118713 C71.33851683 56.8705341 70.07065842 50.25906651 65.125 43.5 C65.125 42.84 65.125 42.18 65.125 41.5 C64.56699707 41.23082764 64.00899414 40.96165527 63.43408203 40.68432617 C60.94385862 39.40709274 58.5723081 38.00278804 56.1796875 36.55078125 C55.19774414 35.95724854 54.21580078 35.36371582 53.20410156 34.75219727 C52.14674805 34.11209717 51.08939453 33.47199707 50 32.8125 C40.84875774 27.29262851 31.645236 21.88038294 22.375 16.5625 C13.8648505 11.6790123 5.43685824 6.71504071 -2.875 1.5 C-4.68328272 0.36823374 -6.49560317 -0.75711487 -8.3125 -1.875 C-9.05371094 -2.33648437 -9.79492188 -2.79796875 -10.55859375 -3.2734375 C-17.45078505 -6.92292834 -24.21700751 -7.47687376 -31.875 -6.5 C-36.19890719 -4.99603228 -39.96961425 -2.87148747 -43.875 -0.5 C-44.91398437 0.12648438 -45.95296875 0.75296875 -47.0234375 1.3984375 C-49.20641927 2.73571205 -51.38205251 4.08504477 -53.55078125 5.4453125 C-56.80760175 7.45834139 -60.10432295 9.36654005 -63.4375 11.25 C-71.87643686 16.02098194 -80.16225534 21.04408934 -88.46240234 26.05126953 C-90.70454711 27.39764547 -92.95359474 28.73122704 -95.20703125 30.05859375 C-109.26071848 37.96297127 -109.26071848 37.96297127 -118.875 50.5 C-119.21979401 51.18008118 -119.56458801 51.86016235 -119.91983032 52.56085205 C-121.23145946 56.59685966 -121.17004245 60.3351009 -121.16552734 64.55371094 C-121.17224457 65.45682007 -121.17896179 66.3599292 -121.18588257 67.29040527 C-121.20485734 70.27178474 -121.20878678 73.25293893 -121.2109375 76.234375 C-121.21736672 78.31317232 -121.22409517 80.39196873 -121.23110962 82.47076416 C-121.24308176 86.82851254 -121.2467906 91.18618165 -121.24560547 95.54394531 C-121.2454025 101.11338912 -121.27268232 106.6823214 -121.30714989 112.25164413 C-121.32944876 116.54634917 -121.33344206 120.84093179 -121.33238602 125.13568878 C-121.33473833 127.1880901 -121.34354089 129.24049499 -121.35905075 131.29283905 C-121.37876718 134.17182109 -121.37285002 137.04970921 -121.36083984 139.92871094 C-121.37207886 140.76746765 -121.38331787 141.60622437 -121.39489746 142.47039795 C-121.30302312 151.18886443 -117.90718466 158.26179469 -112.0078125 164.60205078 C-107.90150484 168.25617576 -103.17029525 170.79788793 -98.375 173.4375 C-96.21705515 174.65946289 -94.05950198 175.88211774 -91.90234375 177.10546875 C-90.86319824 177.6886084 -89.82405273 178.27174805 -88.75341797 178.87255859 C-85.10768436 180.93383597 -81.51596356 183.07469039 -77.9375 185.25 C-72.09156271 188.78441219 -66.20328268 192.24233579 -60.30151367 195.68261719 C-56.65454628 197.82096951 -53.04906565 200.00577788 -49.48828125 202.28515625 C-48.42081665 202.9668689 -48.42081665 202.9668689 -47.33178711 203.66235352 C-45.98764385 204.526029 -44.64821904 205.39711318 -43.31469727 206.27709961 C-35.58834848 211.24382007 -27.95203523 212.4006852 -18.875 211.5 C-12.71242554 210.04711456 -7.45530051 206.72274223 -2.09375 203.46484375 C-0.75615386 202.6573873 0.58149455 201.85001743 1.91918945 201.04272461 C2.61025787 200.62473602 3.30132629 200.20674744 4.01333618 199.77609253 C9.5679941 196.4193757 15.13667299 193.08601787 20.70874023 189.75830078 C22.13206248 188.90698329 23.55423302 188.05373778 24.9753418 187.19873047 C27.06796156 185.9401722 29.16438999 184.68819093 31.26171875 183.4375 C31.89397873 183.05529297 32.52623871 182.67308594 33.17765808 182.27929688 C36.10491775 180.54221925 38.73701181 179.04755365 42.125 178.5 C39.42355516 181.59905485 36.04393249 183.48172874 32.53515625 185.52734375 C31.55644058 186.10550339 31.55644058 186.10550339 30.55795288 186.69534302 C28.43700078 187.94708487 26.31240351 189.19247964 24.1875 190.4375 C21.27258378 192.15219736 18.35900309 193.86915859 15.4453125 195.5859375 C14.36705452 196.22025444 14.36705452 196.22025444 13.26701355 196.86738586 C9.09104753 199.32735941 4.93687649 201.81840419 0.8046875 204.3515625 C-0.09773682 204.90336182 -1.00016113 205.45516113 -1.92993164 206.02368164 C-3.5476659 207.0164359 -5.16173735 208.0151957 -6.77124023 209.02124023 C-14.18914849 213.55510181 -21.19654018 215.4308834 -29.875 214.5 C-37.12155923 212.28600564 -43.71434476 208.57418313 -50.25 204.8125 C-51.71626831 203.97634155 -51.71626831 203.97634155 -53.2121582 203.12329102 C-64.21960085 196.80137311 -75.0445794 190.17834974 -85.86952209 183.5508728 C-89.5396462 181.30685162 -93.22448805 179.08940329 -96.921875 176.890625 C-97.8394458 176.3447876 -98.7570166 175.7989502 -99.70239258 175.23657227 C-101.38275841 174.2392922 -103.06476329 173.24476603 -104.7487793 172.25366211 C-110.68533368 168.72526569 -115.58465565 165.61175235 -119.125 159.5 C-119.62515625 158.654375 -120.1253125 157.80875 -120.640625 156.9375 C-122.41916044 153.42545533 -122.99796123 150.35782318 -123.02217102 146.44174194 C-123.02932632 145.6429361 -123.03648163 144.84413025 -123.04385376 144.02111816 C-123.04654266 143.15353882 -123.04923157 142.28595947 -123.05200195 141.39208984 C-123.05857315 140.47122589 -123.06514435 139.55036194 -123.07191467 138.60159302 C-123.09162024 135.55470697 -123.10330558 132.50787021 -123.11328125 129.4609375 C-123.11939454 127.89647322 -123.11939454 127.89647322 -123.12563133 126.30040359 C-123.14648261 120.77758228 -123.16078717 115.25478574 -123.17016602 109.73193359 C-123.18121495 104.04264605 -123.21560033 98.35375127 -123.25533772 92.66460228 C-123.28155329 88.27722473 -123.28986236 83.88993997 -123.29344749 79.502491 C-123.2983024 77.40624979 -123.30988492 75.31001242 -123.32848549 73.21384811 C-123.35297686 70.27034659 -123.35189335 67.32785072 -123.3449707 64.38427734 C-123.35778076 63.52884338 -123.37059082 62.67340942 -123.38378906 61.79205322 C-123.32165454 54.49280115 -121.34590611 47.9616202 -117.0793457 41.984375 C-112.13085842 37.32265193 -106.987246 33.81479042 -101.0625 30.5 C-99.11028478 29.37698377 -97.15848082 28.25325242 -95.20703125 27.12890625 C-94.1804541 26.54254395 -93.15387695 25.95618164 -92.09619141 25.35205078 C-87.02700463 22.4374797 -82.0015724 19.44984325 -76.97515869 16.46228027 C-75.25374924 15.43972713 -73.53111294 14.41927188 -71.80810547 13.39941406 C-66.52598952 10.27067689 -61.25122844 7.13090673 -55.99609375 3.95703125 C-55.09391113 3.41248291 -54.19172852 2.86793457 -53.26220703 2.30688477 C-51.61174453 1.3088761 -49.96283453 0.30829275 -48.31591797 -0.69555664 C-29.93037017 -11.81730605 -18.59065851 -10.89311713 0 0 Z " fill="#E9EBEB" transform="translate(261.875,60.5)"/>
<path d="M0 0 C0 2.31 0 4.62 0 7 C3.465 6.505 3.465 6.505 7 6 C6.67 8.64 6.34 11.28 6 14 C4.4221875 14.0928125 4.4221875 14.0928125 2.8125 14.1875 C-1.69467839 15.14804621 -3.3066537 16.29664884 -6 20 C-5.68575046 22.63543563 -5.68575046 22.63543563 -5 25 C-4.24074219 25.09796875 -3.48148437 25.1959375 -2.69921875 25.296875 C-1.70535156 25.44640625 -0.71148437 25.5959375 0.3125 25.75 C1.29863281 25.88921875 2.28476562 26.0284375 3.30078125 26.171875 C6.53843226 27.16519195 7.40854243 28.04972317 9 31 C10.46565653 37.27789546 8.29237101 42.33875754 5.38671875 47.8359375 C4 50 4 50 2.375 51.52734375 C0.61684589 53.41036676 0.52046987 54.65026758 0.3125 57.1875 C0.1578125 59.0746875 0.1578125 59.0746875 0 61 C-2.475 61.495 -2.475 61.495 -5 62 C-5 60.35 -5 58.7 -5 57 C-7.97 57 -10.94 57 -14 57 C-13.125 50.125 -13.125 50.125 -12 49 C-9.48836585 48.54538522 -6.97048 48.16474997 -4.4453125 47.79296875 C-1.4146113 46.81016948 -0.54533904 45.74726941 1 43 C1.33397787 39.87413125 1.33397787 39.87413125 1 37 C-0.54477624 35.45522376 -2.17027278 35.81021351 -4.3125 35.6875 C-7.24062849 35.35645363 -8.93444508 35.03517581 -11.5625 33.625 C-13.97247402 29.22417788 -13.79349285 24.88199838 -13 20 C-11.74061037 16.97169669 -10.2635424 14.38468974 -8 12 C-7.01 11.67 -6.02 11.34 -5 11 C-5.061875 9.741875 -5.12375 8.48375 -5.1875 7.1875 C-5.19441101 3.28277965 -5.19441101 3.28277965 -3.625 1 C-2 0 -2 0 0 0 Z " fill="#F3F5F6" transform="translate(266,174)"/>
<path d="M0 0 C1.0818155 3.24544649 0.86628431 3.87739691 0 7 C-0.0951863 8.3348694 -0.14555974 9.67345874 -0.15821838 11.01165771 C-0.1680072 11.7996727 -0.17779602 12.58768768 -0.18788147 13.39958191 C-0.19363693 14.25481949 -0.1993924 15.11005707 -0.20532227 15.99121094 C-0.21522186 16.89887711 -0.22512146 17.80654327 -0.23532104 18.74171448 C-0.26688629 21.73924153 -0.29167386 24.73678443 -0.31640625 27.734375 C-0.33698007 29.81374522 -0.35797666 31.89311129 -0.37937927 33.97247314 C-0.43455572 39.44358972 -0.48398456 44.91474376 -0.53222656 50.38592529 C-0.58247388 55.96955701 -0.63814309 61.55313435 -0.69335938 67.13671875 C-0.80088682 78.09109938 -0.90234385 89.04552723 -1 100 C-1.33 99.34 -1.66 98.68 -2 98 C-3.485 98.495 -3.485 98.495 -5 99 C-5.0695021 87.09108091 -5.12281244 75.18221005 -5.15543652 63.27312946 C-5.17109422 57.74329274 -5.19233462 52.21359476 -5.22631836 46.68383789 C-5.25890775 41.34758833 -5.27685223 36.01147224 -5.28463173 30.67513084 C-5.29017597 28.63895758 -5.30100244 26.60279165 -5.31719017 24.56667519 C-5.33895867 21.71526919 -5.34196714 18.86441514 -5.34057617 16.01293945 C-5.351362 15.17064789 -5.36214783 14.32835632 -5.3732605 13.46054077 C-5.34892766 8.85254287 -5.06936922 5.70665883 -2 2 C-1.34 2 -0.68 2 0 2 C0 1.34 0 0.68 0 0 Z " fill="#3D4344" transform="translate(146,110)"/>
<path d="M0 0 C0.33 0 0.66 0 1 0 C1.33 30.36 1.66 60.72 2 92 C3.32 92.33 4.64 92.66 6 93 C7.16015625 94.9609375 7.16015625 94.9609375 8.0625 97.375 C9.31160962 100.6666451 10.48526117 102.56362414 13 105 C13 105.66 13 106.32 13 107 C14.07350708 107.400979 14.07350708 107.400979 15.16870117 107.81005859 C18.05002983 109.02102659 20.61774736 110.43865632 23.30078125 112.0390625 C24.27724609 112.61914062 25.25371094 113.19921875 26.25976562 113.796875 C27.26716797 114.40015625 28.27457031 115.0034375 29.3125 115.625 C30.33923828 116.23601562 31.36597656 116.84703125 32.42382812 117.4765625 C34.95113875 118.98119394 37.47643399 120.4890994 40 122 C39.505 123.98 39.505 123.98 39 126 C33.85637079 125.46230306 30.02131119 122.92946251 25.6875 120.3125 C24.92856445 119.85842773 24.16962891 119.40435547 23.38769531 118.93652344 C12.71131671 112.48285727 4.15890979 106.28344047 0 94 C-0.50228665 90.76537729 -0.50961702 87.61754602 -0.45410156 84.34936523 C-0.45468567 83.43121536 -0.45526978 82.51306549 -0.45587158 81.5670929 C-0.45310811 78.56386108 -0.42209893 75.56164992 -0.390625 72.55859375 C-0.38315642 70.46395917 -0.37746641 68.36931756 -0.37347412 66.27467346 C-0.35826642 60.78531299 -0.31902661 55.29638183 -0.2746582 49.80718994 C-0.23360034 44.19638881 -0.2154407 38.58551772 -0.1953125 32.97460938 C-0.15252758 21.98288522 -0.08433543 10.99147843 0 0 Z " fill="#646A6B" transform="translate(140,116)"/>
<path d="M0 0 C1.59231373 1.53286814 3.04924362 3.06239275 4.41992188 4.79907227 C9.22209625 10.8600764 14.78527786 14.24132267 21.5 17.9375 C23.65794485 19.15946289 25.81549802 20.38211774 27.97265625 21.60546875 C29.01180176 22.1886084 30.05094727 22.77174805 31.12158203 23.37255859 C34.76731564 25.43383597 38.35903644 27.57469039 41.9375 29.75 C47.78343729 33.28441219 53.67171732 36.74233579 59.57348633 40.18261719 C63.22045372 42.32096951 66.82593435 44.50577788 70.38671875 46.78515625 C71.09836182 47.23963135 71.81000488 47.69410645 72.54321289 48.16235352 C73.88735615 49.026029 75.22678096 49.89711318 76.56030273 50.77709961 C84.28665152 55.74382007 91.92296477 56.9006852 101 56 C107.16257446 54.54711456 112.41969949 51.22274223 117.78125 47.96484375 C119.11884614 47.1573873 120.45649455 46.35001743 121.79418945 45.54272461 C122.48525787 45.12473602 123.17632629 44.70674744 123.88833618 44.27609253 C129.4429941 40.9193757 135.01167299 37.58601787 140.58374023 34.25830078 C142.00706248 33.40698329 143.42923302 32.55373778 144.8503418 31.69873047 C146.94296156 30.4401722 149.03938999 29.18819093 151.13671875 27.9375 C151.76897873 27.55529297 152.40123871 27.17308594 153.05265808 26.77929688 C155.97991775 25.04221925 158.61201181 23.54755365 162 23 C159.29855516 26.09905485 155.91893249 27.98172874 152.41015625 30.02734375 C151.75767914 30.41278351 151.10520203 30.79822327 150.43295288 31.19534302 C148.31200078 32.44708487 146.18740351 33.69247964 144.0625 34.9375 C141.14758378 36.65219736 138.23400309 38.36915859 135.3203125 40.0859375 C134.60147385 40.50881546 133.88263519 40.93169342 133.14201355 41.36738586 C128.96604753 43.82735941 124.81187649 46.31840419 120.6796875 48.8515625 C119.77726318 49.40336182 118.87483887 49.95516113 117.94506836 50.52368164 C116.3273341 51.5164359 114.71326265 52.5151957 113.10375977 53.52124023 C105.68585151 58.05510181 98.67845982 59.9308834 90 59 C82.75344077 56.78600564 76.16065524 53.07418313 69.625 49.3125 C68.64748779 48.75506104 67.66997559 48.19762207 66.6628418 47.62329102 C55.65539915 41.30137311 44.8304206 34.67834974 34.00547791 28.0508728 C30.3353538 25.80685162 26.65051195 23.58940329 22.953125 21.390625 C22.0355542 20.8447876 21.1179834 20.2989502 20.17260742 19.73657227 C18.49224159 18.7392922 16.81023671 17.74476603 15.1262207 16.75366211 C8.78060171 12.98213777 3.76416259 9.55243118 0 3 C0 2.01 0 1.02 0 0 Z " fill="#E6E9E9" transform="translate(142,216)"/>
<path d="M0 0 C0.89203125 0.00902344 1.7840625 0.01804688 2.703125 0.02734375 C3.37859375 0.03894531 4.0540625 0.05054688 4.75 0.0625 C4.75 0.3925 4.75 0.7225 4.75 1.0625 C4.02296875 1.13726562 3.2959375 1.21203125 2.546875 1.2890625 C-9.57686457 2.8744746 -18.71463005 8.60318512 -28.92578125 15.0078125 C-32.18260175 17.02084139 -35.47932295 18.92904005 -38.8125 20.8125 C-47.25143686 25.58348194 -55.53725534 30.60658934 -63.83740234 35.61376953 C-66.07954711 36.96014547 -68.32859474 38.29372704 -70.58203125 39.62109375 C-84.63571848 47.52547127 -84.63571848 47.52547127 -94.25 60.0625 C-94.76866386 61.08163986 -94.76866386 61.08163986 -95.29780579 62.12136841 C-96.60933044 66.17239764 -96.52089847 69.91596858 -96.49291992 74.14794922 C-96.49481827 75.05427094 -96.49671661 75.96059265 -96.49867249 76.89437866 C-96.5023719 79.88540343 -96.4916857 82.87618436 -96.48046875 85.8671875 C-96.47927609 87.95077486 -96.47882397 90.03436276 -96.4790802 92.11795044 C-96.47751663 96.48410409 -96.46923807 100.85017561 -96.45581055 105.21630859 C-96.43884212 110.80369725 -96.43499575 116.3909955 -96.43575573 121.97840691 C-96.4354833 126.28159442 -96.42998995 130.5847623 -96.42275429 134.88794327 C-96.41957916 136.94756039 -96.41760292 139.00717973 -96.41686058 141.06679916 C-96.41468354 143.95065821 -96.40590932 146.83442305 -96.39526367 149.71826172 C-96.39571686 150.56420898 -96.39617004 151.41015625 -96.39663696 152.28173828 C-96.37139114 156.97769899 -96.029898 161.4300421 -95.25 166.0625 C-98.24973978 163.06276022 -98.37172875 160.11968346 -98.39717102 156.00424194 C-98.40432632 155.2054361 -98.41148163 154.40663025 -98.41885376 153.58361816 C-98.42154266 152.71603882 -98.42423157 151.84845947 -98.42700195 150.95458984 C-98.43357315 150.03372589 -98.44014435 149.11286194 -98.44691467 148.16409302 C-98.46662024 145.11720697 -98.47830558 142.07037021 -98.48828125 139.0234375 C-98.49439454 137.45897322 -98.49439454 137.45897322 -98.50063133 135.86290359 C-98.52148261 130.34008228 -98.53578717 124.81728574 -98.54516602 119.29443359 C-98.55621495 113.60514605 -98.59060033 107.91625127 -98.63033772 102.22710228 C-98.65655329 97.83972473 -98.66486236 93.45243997 -98.66844749 89.064991 C-98.6733024 86.96874979 -98.68488492 84.87251242 -98.70348549 82.77634811 C-98.72797686 79.83284659 -98.72689335 76.89035072 -98.7199707 73.94677734 C-98.73278076 73.09134338 -98.74559082 72.23590942 -98.75878906 71.35455322 C-98.69665454 64.05530115 -96.72090611 57.5241202 -92.4543457 51.546875 C-87.50585842 46.88515193 -82.362246 43.37729042 -76.4375 40.0625 C-74.48528478 38.93948377 -72.53348082 37.81575242 -70.58203125 36.69140625 C-69.5554541 36.10504395 -68.52887695 35.51868164 -67.47119141 34.91455078 C-62.40200463 31.9999797 -57.3765724 29.01234325 -52.35015869 26.02478027 C-50.62874924 25.00222713 -48.90611294 23.98177188 -47.18310547 22.96191406 C-41.90098952 19.83317689 -36.62622844 16.69340673 -31.37109375 13.51953125 C-30.46891113 12.97498291 -29.56672852 12.43043457 -28.63720703 11.86938477 C-26.98674453 10.8713761 -25.33783453 9.87079275 -23.69091797 8.86694336 C-8.84053219 -0.11632279 -8.84053219 -0.11632279 0 0 Z " fill="#F3F5F5" transform="translate(237.25,50.9375)"/>
<path d="M0 0 C0.25 2.3125 0.25 2.3125 0 5 C-1.6875 6.625 -1.6875 6.625 -4 8 C-4.81597656 8.49757812 -5.63195312 8.99515625 -6.47265625 9.5078125 C-7.72369141 10.24644531 -7.72369141 10.24644531 -9 11 C-10.48019605 11.95674263 -11.95944991 12.91494545 -13.4375 13.875 C-16.74528302 16 -16.74528302 16 -19 16 C-19.32421875 13.23046875 -19.32421875 13.23046875 -19 10 C-16.76953125 7.98828125 -16.76953125 7.98828125 -13.8125 6.3125 C-12.84957031 5.75175781 -11.88664062 5.19101563 -10.89453125 4.61328125 C-9.46173828 3.81470703 -9.46173828 3.81470703 -8 3 C-6.67548828 2.15501953 -6.67548828 2.15501953 -5.32421875 1.29296875 C-3 0 -3 0 0 0 Z " fill="#559363" transform="translate(303,213)"/>
<path d="M0 0 C1.95624176 -0.13797943 3.91549793 -0.23330534 5.875 -0.3125 C6.96554688 -0.37050781 8.05609375 -0.42851563 9.1796875 -0.48828125 C18.75656019 0.73575667 27.2752125 7.44624097 35.38769531 12.4206543 C37.25858313 13.56776262 39.13286337 14.70915373 41.0078125 15.84960938 C46.40473162 19.14089544 51.75797331 22.46679533 57 26 C56.67 26.66 56.34 27.32 56 28 C44.97156297 21.554638 34.02038361 15.01273975 23.1875 8.2421875 C15.43050799 3.46332635 9.05462033 1.67999125 0 1 C0 0.67 0 0.34 0 0 Z " fill="#E1E4E4" transform="translate(233,52)"/>
<path d="M0 0 C-0.17486861 5.24605829 -0.17486861 5.24605829 -1 8 C-5.7 12 -5.7 12 -9 12 C-9 12.66 -9 13.32 -9 14 C-9.99 14 -10.98 14 -12 14 C-12 14.99 -12 15.98 -12 17 C-14.75 18.625 -14.75 18.625 -18 20 C-20.375 19.1875 -20.375 19.1875 -22 18 C-21.01 18 -20.02 18 -19 18 C-19 17.34 -19 16.68 -19 16 C-17.0234375 14.6328125 -17.0234375 14.6328125 -14.375 13.125 C-13.01181641 12.32642578 -13.01181641 12.32642578 -11.62109375 11.51171875 C-10.09643642 10.63237093 -8.56910533 9.75756821 -7.03515625 8.89453125 C-4.25805938 7.23098912 -3.12577985 6.39530809 -2.125 3.25 C-2.08375 2.5075 -2.0425 1.765 -2 1 C-3.65 1.33 -5.3 1.66 -7 2 C-7 1.34 -7 0.68 -7 0 C-4.3333581 -1.33332095 -2.83319697 -0.67102033 0 0 Z " fill="#31523F" transform="translate(305,212)"/>
<path d="M0 0 C0 3 0 3 -1 5 C-0.01 5.33 0.98 5.66 2 6 C0.25 9 0.25 9 -2 12 C-3.32 12 -4.64 12 -6 12 C-6.12375 12.639375 -6.2475 13.27875 -6.375 13.9375 C-6.58125 14.618125 -6.7875 15.29875 -7 16 C-7.66 16.33 -8.32 16.66 -9 17 C-8.48188555 10.09180736 -4.9545704 4.67931649 0 0 Z " fill="#4C5152" transform="translate(150,100)"/>
<path d="M0 0 C4.96702804 1.27063508 7.71893937 3.04342689 11 7 C11 7.99 11 8.98 11 10 C6.97563355 9.3808667 4.14838867 7.51871094 1 5 C0.125 2.25 0.125 2.25 0 0 Z " fill="#424747" transform="translate(198,250)"/>
<path d="M0 0 C3.7910119 1.44950455 7.3874638 3.15172566 11 5 C10.67 6.32 10.34 7.64 10 9 C6.06616447 8.4380235 3.12979109 7.50383287 0 5 C-0.3125 2.3125 -0.3125 2.3125 0 0 Z " fill="#444C4C" transform="translate(265,66)"/>
<path d="M0 0 C0.99 0.33 1.98 0.66 3 1 C1.21190303 2.17213045 -0.58059125 3.33755526 -2.375 4.5 C-3.37273437 5.1496875 -4.37046875 5.799375 -5.3984375 6.46875 C-8 8 -8 8 -10 8 C-10 9.65 -10 11.3 -10 13 C-10.33 13 -10.66 13 -11 13 C-10.88590407 11.54077307 -10.75834456 10.08259402 -10.625 8.625 C-10.55539062 7.81289062 -10.48578125 7.00078125 -10.4140625 6.1640625 C-10 4 -10 4 -8 2 C-6.33333333 2 -4.66666667 2 -3 2 C-2.01 1.34 -1.02 0.68 0 0 Z " fill="#314F3B" transform="translate(293,215)"/>
<path d="M0 0 C1.98 0.495 1.98 0.495 4 1 C4.66 3.31 5.32 5.62 6 8 C4.35 8.33 2.7 8.66 1 9 C-0.61949011 6.42786866 -1.04408751 5.32330841 -0.625 2.25 C-0.41875 1.5075 -0.2125 0.765 0 0 Z " fill="#4E5253" transform="translate(142,208)"/>
<path d="M0 0 C0 0.99 0 1.98 0 3 C-0.99 3.33 -1.98 3.66 -3 4 C-0.36 4 2.28 4 5 4 C5 4.33 5 4.66 5 5 C-5.15317287 6.61050328 -5.15317287 6.61050328 -8.6875 4.0625 C-9.120625 3.381875 -9.55375 2.70125 -10 2 C-6.49223216 0.39644899 -3.85645121 -0.22036864 0 0 Z " fill="#575C60" transform="translate(235,53)"/>
<path d="M0 0 C1.98 0.99 3.96 1.98 6 3 C5.34 4.65 4.68 6.3 4 8 C0.62496331 6.8141763 -1.64722731 5.72426311 -4 3 C-2.68 2.67 -1.36 2.34 0 2 C0 1.34 0 0.68 0 0 Z " fill="#4F5756" transform="translate(222,263)"/>
<path d="M0 0 C0.99 0 1.98 0 3 0 C1.68206814 5.66710699 -0.48709197 7.66437233 -5 11 C-5.66 10.67 -6.32 10.34 -7 10 C-6.67 9.01 -6.34 8.02 -6 7 C-5.01 6.67 -4.02 6.34 -3 6 C-3.33 5.34 -3.66 4.68 -4 4 C-2.68 4.33 -1.36 4.66 0 5 C-0.33 4.01 -0.66 3.02 -1 2 C-0.67 1.34 -0.34 0.68 0 0 Z " fill="#848687" transform="translate(326,219)"/>
<path d="M0 0 C0 0.99 0 1.98 0 3 C-0.99 3.495 -0.99 3.495 -2 4 C-2.65213292 6.02463255 -2.65213292 6.02463255 -3 8 C-4.65 8.33 -6.3 8.66 -8 9 C-7.9375 6.75 -7.9375 6.75 -7 4 C-4.7691525 2.32150176 -2.52594094 1.24000737 0 0 Z " fill="#484F52" transform="translate(297,126)"/>
<path d="M0 0 C2.93345985 2.85321323 5.5414685 5.94160037 8.18359375 9.0625 C9.98716441 10.98630871 11.8471096 12.48587928 14 14 C9.56120611 13.49270927 7.22827752 12.06272483 4 9 C0 3.7027027 0 3.7027027 0 0 Z " fill="#E5E8E7" transform="translate(142,216)"/>
<path d="M0 0 C-3.85623679 4.82029598 -3.85623679 4.82029598 -7.11328125 5.33203125 C-9.07856214 5.3145776 -11.04166127 5.16596091 -13 5 C-10.7952904 1.69293561 -10.11721065 1.40093066 -6.5 0.25 C-5.7059375 -0.01296875 -4.911875 -0.2759375 -4.09375 -0.546875 C-2 -1 -2 -1 0 0 Z " fill="#4D5456" transform="translate(267,218)"/>
<path d="M0 0 C2.03144641 0.93446535 4.03533587 1.93224776 6 3 C5 5 5 5 2.75 5.8125 C-0.7306847 6.04981941 -2.21153078 4.99176373 -5 3 C-2 1 -2 1 0 0 Z " fill="#495251" transform="translate(164,229)"/>
<path d="M0 0 C1.7074998 1.28062485 3.37373596 2.61767557 5 4 C5 4.66 5 5.32 5 6 C-1.0546875 6.1953125 -1.0546875 6.1953125 -3 6 C-3.66 5.34 -4.32 4.68 -5 4 C-3.35 2.68 -1.7 1.36 0 0 Z " fill="#D2D7D9" transform="translate(235,263)"/>
<path d="M0 0 C0.33 0.66 0.66 1.32 1 2 C1.66 2.33 2.32 2.66 3 3 C1.1875 4.5625 1.1875 4.5625 -1 6 C-1.99 5.67 -2.98 5.34 -4 5 C-4.99 5 -5.98 5 -7 5 C-7 4.34 -7 3.68 -7 3 C-4.69 2.01 -2.38 1.02 0 0 Z " fill="#434748" transform="translate(185,80)"/>
<path d="M0 0 C0.66 0.33 1.32 0.66 2 1 C2 3.97 2 6.94 2 10 C0.68 10.33 -0.64 10.66 -2 11 C-1.814375 10.071875 -1.62875 9.14375 -1.4375 8.1875 C-0.75876119 4.98656229 -0.75876119 4.98656229 -2 2 C-1.34 2 -0.68 2 0 2 C0 1.34 0 0.68 0 0 Z " fill="#4C5354" transform="translate(259,175)"/>
<path d="M0 0 C0.99 0.33 1.98 0.66 3 1 C2.67 3.64 2.34 6.28 2 9 C0.35 8.67 -1.3 8.34 -3 8 C-1.125 2.25 -1.125 2.25 0 0 Z " fill="#4F5557" transform="translate(329,109)"/>
<path d="M0 0 C3.625 0.375 3.625 0.375 7 1 C6.01 2.485 6.01 2.485 5 4 C3.0546875 4.29296875 3.0546875 4.29296875 0.875 4.1875 C-0.40375 4.125625 -1.6825 4.06375 -3 4 C-2 2 -2 2 0 0 Z " fill="#3B4144" transform="translate(235,53)"/>
<path d="M0 0 C3.96 1.98 3.96 1.98 8 4 C6.35 5.32 4.7 6.64 3 8 C1.5 6.6875 1.5 6.6875 0 5 C0 3.33333333 0 1.66666667 0 0 Z " fill="#4F5657" transform="translate(208,255)"/>
<path d="M0 0 C-1.32 0.33 -2.64 0.66 -4 1 C-4 2.32 -4 3.64 -4 5 C-6.31 5 -8.62 5 -11 5 C-10 2 -10 2 -8.3125 0.8125 C-5.45030907 -0.19313465 -3.01172092 -0.13689641 0 0 Z " fill="#5B6060" transform="translate(324,113)"/>
<path d="M0 0 C2.3125 0.8125 2.3125 0.8125 4 2 C3.67 3.32 3.34 4.64 3 6 C-0.37462715 5.45276317 -2.08235 4.9451 -5 3 C-2.75 1.375 -2.75 1.375 0 0 Z " fill="#499153" transform="translate(295,216)"/>
<path d="M0 0 C0.99 0.33 1.98 0.66 3 1 C3 1.99 3 2.98 3 4 C0.36 4.33 -2.28 4.66 -5 5 C-3.35 3.35 -1.7 1.7 0 0 Z " fill="#3F4546" transform="translate(217,60)"/>
<path d="M0 0 C0.66 0.33 1.32 0.66 2 1 C0.25 5.875 0.25 5.875 -2 7 C-4.125 6.0625 -4.125 6.0625 -6 5 C-4.06745228 2.9754262 -2.36841312 1.57894208 0 0 Z " fill="#4D5254" transform="translate(169,88)"/>
<path d="M0 0 C2.475 0.99 2.475 0.99 5 2 C5 2.99 5 3.98 5 5 C4.67 5 4.34 5 4 5 C3.01 5.495 3.01 5.495 2 6 C1.34 5.67 0.68 5.34 0 5 C0 3.35 0 1.7 0 0 Z " fill="#3C4242" transform="translate(265,66)"/>
<path d="M0 0 C0.99 0.66 1.98 1.32 3 2 C3 2.66 3 3.32 3 4 C1.02 4.66 -0.96 5.32 -3 6 C-1.125 1.125 -1.125 1.125 0 0 Z " fill="#404647" transform="translate(171,88)"/>
<path d="M0 0 C0 2.83967231 -0.40267181 5.23735711 -1 8 C-2.32 8.33 -3.64 8.66 -5 9 C-3.90931332 5.22454612 -3.0916909 2.52956528 0 0 Z " fill="#DEE0E2" transform="translate(259,185)"/>
<path d="M0 0 C0 0.99 0 1.98 0 3 C-2.3125 3.625 -2.3125 3.625 -5 4 C-5.99 3.34 -6.98 2.68 -8 2 C-4.91190305 0.23537317 -3.76687864 0 0 0 Z " fill="#E5E9EA" transform="translate(234,58)"/>
<path d="M0 0 C1.98 0.66 3.96 1.32 6 2 C5.01 2.495 5.01 2.495 4 3 C3.67 3.66 3.34 4.32 3 5 C2.34 4.34 1.68 3.68 1 3 C1 3.66 1 4.32 1 5 C0.01 4.67 -0.98 4.34 -2 4 C-1.34 2.68 -0.68 1.36 0 0 Z " fill="#505656" transform="translate(185,242)"/>
<path d="M0 0 C1.5625 1.8125 1.5625 1.8125 3 4 C2.67 4.99 2.34 5.98 2 7 C0.68 6.67 -0.64 6.34 -2 6 C-1.34 4.02 -0.68 2.04 0 0 Z " fill="#474E51" transform="translate(273,217)"/>
<path d="M0 0 C1.98 0.99 1.98 0.99 4 2 C4 3.32 4 4.64 4 6 C2.68 5.67 1.36 5.34 0 5 C0 3.35 0 1.7 0 0 Z " fill="#3B4342" transform="translate(322,100)"/>
<path d="M0 0 C1.65 0.33 3.3 0.66 5 1 C5.33 1.99 5.66 2.98 6 4 C3.69 3.67 1.38 3.34 -1 3 C-0.67 2.01 -0.34 1.02 0 0 Z " fill="#3D4546" transform="translate(313,95)"/>
<path d="M0 0 C3.45925163 1.2491742 6.14693203 2.67527795 9 5 C5.26512223 4.5020163 3.18762365 4.12508244 0 2 C0 1.34 0 0.68 0 0 Z " fill="#E9E9E9" transform="translate(196,254)"/>
<path d="M0 0 C-0.33 1.32 -0.66 2.64 -1 4 C-1.66 4 -2.32 4 -3 4 C-2.67 4.99 -2.34 5.98 -2 7 C-2.99 7.495 -2.99 7.495 -4 8 C-4 5.69 -4 3.38 -4 1 C-2 0 -2 0 0 0 Z " fill="#37403F" transform="translate(271,226)"/>
<path d="M0 0 C0.66 0.66 1.32 1.32 2 2 C1.34 3.32 0.68 4.64 0 6 C-1.32 4.68 -2.64 3.36 -4 2 C-2.68 1.34 -1.36 0.68 0 0 Z " fill="#4A5252" transform="translate(151,220)"/>
<path d="M0 0 C0.66 0.33 1.32 0.66 2 1 C2 1.66 2 2.32 2 3 C0.02 3.99 -1.96 4.98 -4 6 C-3.6875 4.125 -3.6875 4.125 -3 2 C-2.01 1.34 -1.02 0.68 0 0 Z " fill="#4F9B5D" transform="translate(292,219)"/>
<path d="M0 0 C0.99 0.33 1.98 0.66 3 1 C3 1.99 3 2.98 3 4 C1.35 4.33 -0.3 4.66 -2 5 C-1.34 3.35 -0.68 1.7 0 0 Z " fill="#3E4243" transform="translate(151,100)"/>
<path d="" fill="#FFFFFF" transform="translate(0,0)"/>
<path d="" fill="#FFFFFF" transform="translate(0,0)"/>
<path d="" fill="#FFFFFF" transform="translate(0,0)"/>
<path d="" fill="#FFFFFF" transform="translate(0,0)"/>
<path d="" fill="#FFFFFF" transform="translate(0,0)"/>
<path d="" fill="#FFFFFF" transform="translate(0,0)"/>
<path d="" fill="#FFFFFF" transform="translate(0,0)"/>
<path d="" fill="#FFFFFF" transform="translate(0,0)"/>
<path d="" fill="#FFFFFF" transform="translate(0,0)"/>
<path d="" fill="#FFFFFF" transform="translate(0,0)"/>
<path d="" fill="#FFFFFF" transform="translate(0,0)"/>
<path d="" fill="#FFFFFF" transform="translate(0,0)"/>
<path d="" fill="#FFFFFF" transform="translate(0,0)"/>
<path d="" fill="#FFFFFF" transform="translate(0,0)"/>
<path d="" fill="#FFFFFF" transform="translate(0,0)"/>
<path d="" fill="#FFFFFF" transform="translate(0,0)"/>
<path d="" fill="#FFFFFF" transform="translate(0,0)"/>
<path d="" fill="#FFFFFF" transform="translate(0,0)"/>
<path d="" fill="#FFFFFF" transform="translate(0,0)"/>
<path d="" fill="#FFFFFF" transform="translate(0,0)"/>
<path d="" fill="#FFFFFF" transform="translate(0,0)"/>
<path d="" fill="#FFFFFF" transform="translate(0,0)"/>
<path d="" fill="#FFFFFF" transform="translate(0,0)"/>
<path d="" fill="#FFFFFF" transform="translate(0,0)"/>
<path d="" fill="#FFFFFF" transform="translate(0,0)"/>
<path d="" fill="#FFFFFF" transform="translate(0,0)"/>
<path d="" fill="#FFFFFF" transform="translate(0,0)"/>
<path d="" fill="#FFFFFF" transform="translate(0,0)"/>
<path d="" fill="#FFFFFF" transform="translate(0,0)"/>
<path d="" fill="#FFFFFF" transform="translate(0,0)"/>
<path d="" fill="#FFFFFF" transform="translate(0,0)"/>
<path d="" fill="#FFFFFF" transform="translate(0,0)"/>
<path d="" fill="#FFFFFF" transform="translate(0,0)"/>
<path d="" fill="#FFFFFF" transform="translate(0,0)"/>
<path d="" fill="#FFFFFF" transform="translate(0,0)"/>
<path d="" fill="#FFFFFF" transform="translate(0,0)"/>
<path d="" fill="#FFFFFF" transform="translate(0,0)"/>
<path d="" fill="#FFFFFF" transform="translate(0,0)"/>
<path d="" fill="#FFFFFF" transform="translate(0,0)"/>
<path d="" fill="#FFFFFF" transform="translate(0,0)"/>
<path d="" fill="#FFFFFF" transform="translate(0,0)"/>
<path d="" fill="#FFFFFF" transform="translate(0,0)"/>
<path d="" fill="#FFFFFF" transform="translate(0,0)"/>
<path d="" fill="#FFFFFF" transform="translate(0,0)"/>
<path d="" fill="#FFFFFF" transform="translate(0,0)"/>
<path d="" fill="#FFFFFF" transform="translate(0,0)"/>
<path d="" fill="#FFFFFF" transform="translate(0,0)"/>
<path d="" fill="#FFFFFF" transform="translate(0,0)"/>
<path d="" fill="#FFFFFF" transform="translate(0,0)"/>
<path d="" fill="#FFFFFF" transform="translate(0,0)"/>
<path d="" fill="#FFFFFF" transform="translate(0,0)"/>
<path d="" fill="#FFFFFF" transform="translate(0,0)"/>
<path d="" fill="#FFFFFF" transform="translate(0,0)"/>
<path d="" fill="#FFFFFF" transform="translate(0,0)"/>
<path d="" fill="#FFFFFF" transform="translate(0,0)"/>
<path d="" fill="#FFFFFF" transform="translate(0,0)"/>
<path d="" fill="#FFFFFF" transform="translate(0,0)"/>
<path d="" fill="#FFFFFF" transform="translate(0,0)"/>
<path d="" fill="#FFFFFF" transform="translate(0,0)"/>
<path d="" fill="#FFFFFF" transform="translate(0,0)"/>
<path d="" fill="#FFFFFF" transform="translate(0,0)"/>
<path d="" fill="#FFFFFF" transform="translate(0,0)"/>
<path d="" fill="#FFFFFF" transform="translate(0,0)"/>
<path d="" fill="#FFFFFF" transform="translate(0,0)"/>
<path d="" fill="#FFFFFF" transform="translate(0,0)"/>
<path d="" fill="#FFFFFF" transform="translate(0,0)"/>
<path d="" fill="#FFFFFF" transform="translate(0,0)"/>
<path d="" fill="#FFFFFF" transform="translate(0,0)"/>
<path d="" fill="#FFFFFF" transform="translate(0,0)"/>
<path d="" fill="#FFFFFF" transform="translate(0,0)"/>
<path d="" fill="#FFFFFF" transform="translate(0,0)"/>
<path d="" fill="#FFFFFF" transform="translate(0,0)"/>
<path d="" fill="#FFFFFF" transform="translate(0,0)"/>
<path d="" fill="#FFFFFF" transform="translate(0,0)"/>
<path d="" fill="#FFFFFF" transform="translate(0,0)"/>
<path d="" fill="#FFFFFF" transform="translate(0,0)"/>
<path d="" fill="#FFFFFF" transform="translate(0,0)"/>
<path d="" fill="#FFFFFF" transform="translate(0,0)"/>
<path d="" fill="#FFFFFF" transform="translate(0,0)"/>
<path d="" fill="#FFFFFF" transform="translate(0,0)"/>
<path d="" fill="#FFFFFF" transform="translate(0,0)"/>
<path d="" fill="#FFFFFF" transform="translate(0,0)"/>
<path d="" fill="#FFFFFF" transform="translate(0,0)"/>
<path d="" fill="#FFFFFF" transform="translate(0,0)"/>
<path d="" fill="#FFFFFF" transform="translate(0,0)"/>
<path d="" fill="#FFFFFF" transform="translate(0,0)"/>
<path d="" fill="#FFFFFF" transform="translate(0,0)"/>
<path d="" fill="#FFFFFF" transform="translate(0,0)"/>
<path d="" fill="#FFFFFF" transform="translate(0,0)"/>
<path d="" fill="#FFFFFF" transform="translate(0,0)"/>
<path d="" fill="#FFFFFF" transform="translate(0,0)"/>
<path d="" fill="#FFFFFF" transform="translate(0,0)"/>
<path d="" fill="#FFFFFF" transform="translate(0,0)"/>
<path d="" fill="#FFFFFF" transform="translate(0,0)"/>
</svg>
